<svg id="Layer_3" enable-background="new 0 0 64 64" height="512" viewBox="0 0 64 64" width="512" xmlns="http://www.w3.org/2000/svg"><g><path d="m2 2h60v4h-60z" fill="#f7d881"/><path d="m16 6 6 6h20l6-6" fill="#243242"/><path d="m25 16v19h14v-19" fill="#8892a0"/><path d="m25 35 4 6h6l4-6" fill="#c1c8d1"/><path d="m29 41 1 4h4l1-4" fill="#758190"/><g><path d="m31 45h1.999v10h-1.999z" fill="#e7e4dd"/></g><path d="m30 62h-26c-1.105 0-2-.895-2-2 0-1.105.895-2 2-2h26z" fill="#674025"/><path d="m34 62h26c1.105 0 2-.895 2-2 0-1.105-.895-2-2-2h-26z" fill="#674025"/><g><path d="m34.171 51.999h5.657v2.001h-5.657z" fill="#c18e59" transform="matrix(.707 -.707 .707 .707 -26.641 41.697)"/></g><g><path d="m25.999 50.171h1.999v5.657h-1.999z" fill="#c18e59" transform="matrix(.707 -.707 .707 .707 -29.572 34.625)"/></g><path d="m34 16v12c0 1.105-.895 2-2 2-1.105 0-2-.895-2-2v-12" fill="#f7d881"/><g><path d="m30 23h3.999v2h-3.999z" fill="#e39854"/></g><g fill="#534741"><path d="m8.585 6h2.829l-4-4h-2.83z"/><path d="m14.585 6h2.829l-4-4h-2.829z"/><path d="m20.584 6h2.83l-4-4h-2.83z"/><path d="m26.585 6h2.83l-4-4h-2.83z"/><path d="m32.584 6h2.83l-4-4h-2.83z"/><path d="m38.585 6h2.83l-4-4h-2.83z"/><path d="m47.414 6-4-4h-2.829l3.999 4z"/><path d="m50.585 6h2.83l-4-4h-2.83z"/><path d="m56.585 6h2.829l-4-4h-2.829z"/></g><path d="m25 12v4h14v-4" fill="#c1c8d1"/><g><path d="m19 53h3.999v2h-3.999z" fill="#c18e59"/></g><g><path d="m41 53h3.999v2h-3.999z" fill="#c18e59"/></g><g><path d="m31 35h1.999v3h-1.999z" fill="#243242"/></g></g></svg>